<svg xmlns="http://www.w3.org/2000/svg" viewBox="0 0 36 36" fill="none">
  <rect width="36" height="36" rx="10" fill="#3b82f6"/>
  <path d="M10 22c1-4 4-7 8-7 2.5 0 4.5 1 5.5 2l2-3c-2-1.8-4.5-2.8-7.5-2.8-5.5 0-10 4-11 9.3L10 22z" fill="rgba(255,255,255,0.35)"/>
  <path d="M12.5 21c.5-2.5 2.5-5 6-5s5 2 5.5 3.5c.3 1-.2 2.5-1 3.5-1 1.2-2.5 1.5-4 1.5-2.5 0-4.5-1-5.5-2 0 0-.5-.5-1-1.5z" fill="#fff"/>
  <circle cx="21" cy="17.5" r="1.3" fill="#3b82f6"/>
  <path d="M24 19.5c1-.5 2.5-.3 3.5.5" stroke="#fff" stroke-width="1.2" stroke-linecap="round"/>
</svg>
